 Bhanupriya Hot Malayalam Movie - I Love u Teacher (2002) Dvdrip - KK




Format : Windows Media
File size : 749 MiB
Duration : 1h 1mn
Overall bit rate mode : Constant
Overall bit rate : 1 713 Kbps
Maximum Overall bit rate : 1 880 Kbps
Movie name : tamil actress bhanupriya
Performer : DT
Encoded date : UTC 2010-09-06 04:38:22.414
Copyright : DT

Video
ID : 2
Format : VC-1
Format profile : MP@LL
Codec ID : WMV3
Codec ID/Info : Windows Media Video 9
Codec ID/Hint : WMV3
Description of the codec : Windows Media Video 9
Duration : 1h 1mn
Bit rate mode : Constant
Bit rate : 1 548 Kbps
Width : 320 pixels
Height : 240 pixels
Display aspect ratio : 4:3
Frame rate : 30.000 fps
Bit depth : 8 bits
Scan type : Progressive
Bits/(Pixel*Frame) : 0.672
Stream size : 676 MiB (90%)
Language : English (US)


Audio
ID : 1
Format : WMA
Format version : Version 2
Codec ID : 161
Codec ID/Info : Windows Media Audio
Description of the codec : Windows Media Audio 9.2 - 320 kbps, 44 kHz, stereo 1-pass CBR
Duration : 1h 1mn
Bit rate mode : Constant
Bit rate : 320 Kbps
Channel(s) : 2 channels
Sampling rate : 44.1 KHz
Bit depth : 16 bits
Stream size : 140 MiB (19%)

 
http://img802.imageshack.us/img802/4831/vlcsnap2011061808h31m34.png 
http://img864.imageshack.us/img864/1931/vlcsnap2011061808h31m22.png 
http://img804.imageshack.us/img804/4236/vlcsnap2011061808h22m21.png 
http://img26.imageshack.us/img26/456/vlcsnap2011061808h21m38.png 
http://img12.imageshack.us/img12/1570/vlcsnap2011061808h21m28.png 
http://img31.imageshack.us/img31/1524/vlcsnap2011061808h38m20.png

SEED!